# xmcd CD database file generated by OrangeCD 6.5
#
# Track frame offsets:
#	150
#	18748
#	36600
#	49368
#	71028
#	91431
#
# Disc length: 1428 seconds
#
# Revision: 0
# Processed by: cddbd v1.5.2PL0 Copyright (c) Steve Scherf et al.
# Submitted via: OrangeCD 6.5
#
DISCID=59059206
DTITLE=Alex Schofield - Desperado and Troubadour
DYEAR=2016
DGENRE=Country
TTITLE0=Give 'Em Hell (I Can Bet)
TTITLE1=Desperado And Troubadour
TTITLE2=Cool Cool Jane
TTITLE3=Sane One
TTITLE4=Might As Well Write
TTITLE5=The Year Clayton Delaney Died
EXTD=
EXTT0=
EXTT1=
EXTT2=
EXTT3=
EXTT4=
EXTT5=
PLAYORDER=
